<svg width="28" height="28" viewBox="0 0 28 28" fill="none" xmlns="http://www.w3.org/2000/svg">
<path d="M14.3639 7.4939L22.0779 20.8559M21.6739 20.1539L2.65394 24.5719L1.43994 22.4599L14.7739 8.1959" stroke="black" stroke-width="2" stroke-linecap="round" stroke-linejoin="round"/>
<path d="M6.79183 23.61L7.83983 25.424C8.21989 26.0751 8.84303 26.5486 9.57217 26.7402C9.9332 26.8351 10.3094 26.858 10.6793 26.8075C11.0491 26.757 11.4054 26.6342 11.7278 26.446C12.0502 26.2578 12.3324 26.008 12.5582 25.7108C12.7841 25.4135 12.9492 25.0747 13.0441 24.7137C13.139 24.3526 13.1618 23.9765 13.1113 23.6066C13.0609 23.2367 12.938 22.8804 12.7498 22.558L12.5818 22.268M14.8878 3.67402V1.16602M24.4938 13.28H26.9998M2.77783 13.28H5.28383M6.32183 4.71402L8.09383 6.48802M21.6798 6.48802L23.4518 4.71402" stroke="black" stroke-width="2" stroke-linecap="round" stroke-linejoin="round"/>
</svg>
